<?xml version="1.0" encoding="utf-8"?>
<!-- Generator: Adobe Illustrator 23.0.4, SVG Export Plug-In . SVG Version: 6.00 Build 0)  -->
<svg version="1.1" id="Laag_1" xmlns="http://www.w3.org/2000/svg" xmlns:xlink="http://www.w3.org/1999/xlink" x="0px" y="0px"
	 viewBox="0 0 26 32.5" style="enable-background:new 0 0 26 32.5;" xml:space="preserve">
<style type="text/css">
	.st0{fill:#FFFFFF;}
</style>
<title>Asset 2arrow right</title>
<g>
	<g>
		<path class="st0" d="M13,18.2c-0.1,0-0.3-0.1-0.4-0.1l-7.5-7.5C5,10.4,5,10.1,5.2,9.9c0.2-0.2,0.5-0.2,0.7,0L13,17l7.1-7.1
			c0.2-0.2,0.5-0.2,0.7,0s0.2,0.5,0,0.7l-7.5,7.5C13.3,18.2,13.1,18.3,13,18.2z"/>
		<path class="st0" d="M13,26C5.8,26,0,20.2,0,13S5.8,0,13,0s13,5.8,13,13S20.2,26,13,26z M13,1C6.4,1,1,6.4,1,13s5.4,12,12,12
			s12-5.4,12-12S19.6,1,13,1z"/>
	</g>
</g>
<text transform="matrix(1 0 0 1 0 41)" style="display:none;enable-background:new    ; font-family:'HelveticaNeue-Bold'; font-size:5px;">Created by Dwi Priyatmoko</text>
<text transform="matrix(1 0 0 1 0 46)" style="display:none;enable-background:new    ; font-family:'HelveticaNeue-Bold'; font-size:5px;">from the Noun Project</text>
</svg>
