<svg xmlns="http://www.w3.org/2000/svg" viewBox="0 0 8.53 8.53"><defs><style>.a{fill:#fff;}</style></defs><title>Middel 3akaka</title><path class="a" d="M4.26,3.51A1.08,1.08,0,0,0,3.19,4.58h0a1.08,1.08,0,0,0,2.15,0A1.07,1.07,0,0,0,4.26,3.51Zm0,1.77a.7.7,0,0,1,0-1.39h0A.69.69,0,0,1,5,4.58.71.71,0,0,1,4.27,5.28Z"/><path class="a" d="M4.27,0A4.27,4.27,0,1,0,8.53,4.27,4.27,4.27,0,0,0,4.27,0ZM6.54,5.72a.44.44,0,0,1-.44.44H2.43A.44.44,0,0,1,2,5.72V3.44H2A.44.44,0,0,1,2.43,3h.89l.31-.63H4.9L5.21,3h.9a.44.44,0,0,1,.43.44Z"/></svg>